<svg id="Capa_1" enable-background="new 0 0 512 512" height="512" viewBox="0 0 512 512" width="512" xmlns="http://www.w3.org/2000/svg"><g><g><path d="m490.019 316.733c25.611-25.611 28.788-65.287 9.539-94.392l-199.407 171.124 16.568 96.568z" fill="#b4d2d7"/><g fill="#e1ebf0"><path d="m490.019 210.668-10.606-10.607-166.333 166.333 1.213 41.213 185.266-185.266c-2.73-4.126-5.908-8.042-9.54-11.673z"/><path d="m210.653 21.967-140.714 140.715c-36.479 36.478-60.587 84.693-67.882 135.764l-2.006 14.047 212.317-166.457z"/><path d="m112.8 396.846-5.74-13.858c-12.003-28.978-12.003-60.896 0-89.874l27.336-65.995 79.897-39.086 3.252 73.528-27.336 65.995c-12.003 28.978-34.572 51.547-63.551 63.551z"/></g><path d="m.051 312.493 13.914 2.783c7.613 1.523 15.264 2.269 22.859 2.269 30.452 0 59.954-11.996 81.964-34.006l95.505-95.505-1.926-87.857z" fill="#b4d2d7"/><path d="m263.686 0-20 256 20 256c41.355 0 75-33.645 75-75v-362c0-41.355-33.644-75-75-75z" fill="#cc295f"/><path d="m188.686 75v362c0 41.355 33.645 75 75 75v-512c-41.355 0-75 33.645-75 75z" fill="#ff4d4d"/><path d="m263.686 30-20 226 20 226c24.813 0 45-20.187 45-45v-362c0-24.813-20.186-45-45-45z" fill="#ff4d4d"/><path d="m218.686 75v362c0 24.813 20.187 45 45 45v-452c-24.813 0-45 20.187-45 45z" fill="#ff8066"/><path d="m278.686 70h-15l-10 15 10 15h15z" fill="#e1ebf0"/><path d="m278.686 412h-15l-10 15 10 15h15z" fill="#e1ebf0"/><path d="m248.686 70h15v30h-15z" fill="#fff5f5"/><path d="m248.686 412h15v30h-15z" fill="#fff5f5"/></g></g></svg>